<?xml version="1.0" standalone="no"?>
<!DOCTYPE svg PUBLIC "-//W3C//DTD SVG 20010904//EN"
 "http://www.w3.org/TR/2001/REC-SVG-20010904/DTD/svg10.dtd">
<svg version="1.0" xmlns="http://www.w3.org/2000/svg"
 width="308.000000pt" height="506.000000pt" viewBox="0 0 308.000000 506.000000"
 preserveAspectRatio="xMidYMid meet">
<metadata>
Created by potrace 1.15, written by Peter Selinger 2001-2017
</metadata>
<g transform="translate(0.000000,506.000000) scale(0.100000,-0.100000)"
fill="#000000" stroke="none">
<path d="M1490 3775 c0 -14 5 -25 10 -25 6 0 10 7 10 15 0 13 34 15 245 15
l245 0 0 -210 0 -210 -200 0 c-127 0 -200 -4 -200 -10 0 -6 75 -10 205 -10
l205 0 0 229 0 229 -260 1 -260 2 0 -26z"/>
<path d="M1090 3710 c-19 -19 -20 -33 -20 -365 l0 -346 25 -24 c24 -25 25 -25
228 -25 192 0 206 1 231 21 l26 20 0 350 c0 336 -1 350 -20 369 -19 19 -33 20
-235 20 -202 0 -216 -1 -235 -20z m451 0 c18 -10 19 -25 19 -365 l0 -354 -22
-15 c-18 -13 -57 -16 -213 -16 -156 0 -195 3 -213 16 l-22 15 0 354 c0 327 1
355 18 364 23 14 407 14 433 1z"/>
<path d="M1803 3682 c-13 -11 -23 -28 -23 -39 0 -12 -13 -25 -35 -35 -37 -17
-55 -8 -35 17 11 13 5 15 -36 14 -27 -1 -40 -4 -30 -6 28 -7 46 -28 46 -52 0
-22 -34 -30 -43 -11 -3 6 -4 5 -3 -2 1 -7 12 -14 24 -16 32 -5 30 -42 -2 -42
-27 0 -44 16 -24 22 7 3 1 7 -14 10 -16 3 -28 1 -28 -3 0 -5 5 -9 11 -9 8 0 8
-5 -1 -15 -11 -13 -7 -15 24 -15 25 0 36 -4 36 -15 0 -8 5 -15 10 -15 6 0 10
7 10 15 0 23 17 18 25 -7 4 -13 7 -26 6 -30 -1 -5 4 -8 9 -8 6 0 10 6 10 14 0
8 6 17 13 19 6 3 3 6 -8 6 -19 1 -53 51 -34 51 5 0 9 7 9 15 0 8 -4 15 -10 15
-5 0 -10 5 -10 10 0 15 12 12 40 -12 16 -14 21 -22 13 -25 -21 -7 -15 -33 7
-33 11 0 20 -6 20 -14 0 -9 7 -12 20 -9 14 4 20 0 20 -11 0 -9 -4 -16 -10 -16
-15 0 -12 -30 3 -30 6 -1 1 -10 -12 -21 -29 -24 -20 -37 14 -19 15 8 29 10 37
4 7 -5 38 -9 68 -9 l55 0 3 38 c3 35 2 37 -27 37 -41 0 -40 20 2 21 23 1 26 3
10 6 -13 2 -23 11 -23 19 0 11 -6 13 -22 9 -19 -6 -21 -5 -10 6 6 7 11 22 11
34 -1 16 -2 16 -6 3 -6 -22 -83 -22 -83 0 0 12 -3 12 -15 2 -12 -10 -21 -10
-45 0 -31 13 -41 40 -15 40 8 0 20 10 27 23 12 22 14 28 17 47 2 18 18 11 24
-10 3 -11 11 -20 19 -20 9 0 10 2 1 8 -6 4 -13 20 -15 35 l-3 29 -22 -20z"/>
</g>
</svg>
